<svg xmlns="http://www.w浯0/svg" width="256" height="256" viewBox="0 0 256 256" fill="none">
  <defs>
    <linearGradient id="grad1" x1="0%" y1="0%" x2="100%" y2="100%">
      <stop offset="0%" stop-color="#7c5cfc" />
      <stop offset="50%" stop-color="#5ca0fc" />
      <stop offset="100%" stop-color="#40e8a0" />
    </linearGradient>
  </defs>
  <rect width="256" height="256" rx="60" fill="url(#grad1)" />
  <g transform="translate(68, 68) scale(5)" stroke="white" stroke-width="2" stroke-linecap="round" stroke-linejoin="round" fill="none">
    <path d="M12 5a3 3 0 1 0-5.997.125 4 4 0 0 0-2.526 5.77 4 4 0 0 0 .556 6.588A4 4 0 1 0 12 18Z" />
    <path d="M12 5a3 3 0 1 1 5.997.125 4 4 0 0 1 2.526 5.77 4 4 0 0 1-.556 6.588A4 4 0 1 1 12 18Z" />
    <path d="M15 13a4.5 4.5 0 0 1-3-4 4.5 4.5 0 0 1-3 4" />
    <path d="M17.599 6.5a3 3 0 0 0 .399-1.375" />
    <path d="M6.002 6.5A3 3 0 0 1 6.401 5.125" />
    <path d="M11.83 12.97a3 3 0 0 0 2.22-5.14" />
    <path d="M12.17 12.97a3 3 0 0 1-2.22-5.14" />
    <path d="M8.5 16a5.5 5.5 0 0 1-1.1-10.89" />
    <path d="M15.5 16a5.5 5.5 0 0 0 1.1-10.89" />
  </g>
</svg>
